%TF.GenerationSoftware,KiCad,Pcbnew,(5.99.0-10388-g9b1890606d)*%
%TF.CreationDate,2021-05-08T21:36:09-04:00*%
%TF.ProjectId,LexaBlaster,4c657861-426c-4617-9374-65722e6b6963,rev?*%
%TF.SameCoordinates,Original*%
%TF.FileFunction,Soldermask,Top*%
%TF.FilePolarity,Negative*%
%FSLAX46Y46*%
G04 Gerber Fmt 4.6, Leading zero omitted, Abs format (unit mm)*
G04 Created by KiCad (PCBNEW (5.99.0-10388-g9b1890606d)) date 2021-05-08 21:36:09*
%MOMM*%
%LPD*%
G01*
G04 APERTURE LIST*
G04 Aperture macros list*
%AMRoundRect*
0 Rectangle with rounded corners*
0 $1 Rounding radius*
0 $2 $3 $4 $5 $6 $7 $8 $9 X,Y pos of 4 corners*
0 Add a 4 corners polygon primitive as box body*
4,1,4,$2,$3,$4,$5,$6,$7,$8,$9,$2,$3,0*
0 Add four circle primitives for the rounded corners*
1,1,$1+$1,$2,$3*
1,1,$1+$1,$4,$5*
1,1,$1+$1,$6,$7*
1,1,$1+$1,$8,$9*
0 Add four rect primitives between the rounded corners*
20,1,$1+$1,$2,$3,$4,$5,0*
20,1,$1+$1,$4,$5,$6,$7,0*
20,1,$1+$1,$6,$7,$8,$9,0*
20,1,$1+$1,$8,$9,$2,$3,0*%
G04 Aperture macros list end*
%ADD10C,4.000000*%
%ADD11R,2.000000X1.905000*%
%ADD12O,2.000000X1.905000*%
%ADD13R,1.600000X2.400000*%
%ADD14O,1.600000X2.400000*%
%ADD15RoundRect,0.250200X-0.649800X-0.649800X0.649800X-0.649800X0.649800X0.649800X-0.649800X0.649800X0*%
%ADD16C,1.800000*%
%ADD17C,1.600000*%
%ADD18O,1.600000X1.600000*%
%ADD19C,3.200000*%
%ADD20R,3.500000X3.500000*%
%ADD21RoundRect,0.750000X0.750000X1.000000X-0.750000X1.000000X-0.750000X-1.000000X0.750000X-1.000000X0*%
%ADD22RoundRect,0.875000X0.875000X0.875000X-0.875000X0.875000X-0.875000X-0.875000X0.875000X-0.875000X0*%
%ADD23C,2.400000*%
%ADD24O,2.400000X2.400000*%
%ADD25R,1.800000X1.800000*%
%ADD26RoundRect,0.249999X-1.550001X0.790001X-1.550001X-0.790001X1.550001X-0.790001X1.550001X0.790001X0*%
%ADD27O,3.600000X2.080000*%
%ADD28R,1.600000X1.600000*%
G04 APERTURE END LIST*
D10*
%TO.C,U2*%
X177990000Y-82610000D03*
D11*
X161290000Y-80010000D03*
D12*
X161290000Y-82550000D03*
X161290000Y-85090000D03*
%TD*%
D13*
%TO.C,Q1*%
X130810000Y-67310000D03*
D14*
X133350000Y-67310000D03*
X133350000Y-59690000D03*
X130810000Y-59690000D03*
%TD*%
D15*
%TO.C,U1*%
X138430000Y-57150000D03*
D16*
X140970000Y-57150000D03*
X143510000Y-57150000D03*
%TD*%
D17*
%TO.C,R8*%
X128270000Y-83820000D03*
D18*
X128270000Y-73660000D03*
%TD*%
D19*
%TO.C,H1*%
X127000000Y-46990000D03*
%TD*%
%TO.C,H2*%
X182880000Y-46990000D03*
%TD*%
D20*
%TO.C,J2*%
X174340000Y-121920000D03*
D21*
X180340000Y-121920000D03*
D22*
X177340000Y-117220000D03*
%TD*%
D23*
%TO.C,R5*%
X153670000Y-67310000D03*
D24*
X168910000Y-67310000D03*
%TD*%
D25*
%TO.C,D5*%
X161290000Y-137160000D03*
D16*
X163830000Y-137160000D03*
%TD*%
D23*
%TO.C,R1*%
X175260000Y-93980000D03*
D24*
X175260000Y-109220000D03*
%TD*%
D26*
%TO.C,J1*%
X132047500Y-104140000D03*
D27*
X132047500Y-109220000D03*
X132047500Y-114300000D03*
X132047500Y-119380000D03*
X132047500Y-124460000D03*
X132047500Y-129540000D03*
%TD*%
D19*
%TO.C,H3*%
X127000000Y-138430000D03*
%TD*%
D25*
%TO.C,D1*%
X149225000Y-75565000D03*
D16*
X151765000Y-75565000D03*
%TD*%
D25*
%TO.C,D4*%
X141605000Y-83185000D03*
D16*
X144145000Y-83185000D03*
%TD*%
D23*
%TO.C,R2*%
X153670000Y-48260000D03*
D24*
X168910000Y-48260000D03*
%TD*%
D28*
%TO.C,A1*%
X138430000Y-101600000D03*
D18*
X138430000Y-104140000D03*
X138430000Y-106680000D03*
X138430000Y-109220000D03*
X138430000Y-111760000D03*
X138430000Y-114300000D03*
X138430000Y-116840000D03*
X138430000Y-119380000D03*
X138430000Y-121920000D03*
X138430000Y-124460000D03*
X138430000Y-127000000D03*
X138430000Y-129540000D03*
X138430000Y-132080000D03*
X138430000Y-134620000D03*
X138430000Y-137160000D03*
X153670000Y-137160000D03*
X153670000Y-134620000D03*
X153670000Y-132080000D03*
X153670000Y-129540000D03*
X153670000Y-127000000D03*
X153670000Y-124460000D03*
X153670000Y-121920000D03*
X153670000Y-119380000D03*
X153670000Y-116840000D03*
X153670000Y-114300000D03*
X153670000Y-111760000D03*
X153670000Y-109220000D03*
X153670000Y-106680000D03*
X153670000Y-104140000D03*
X153670000Y-101600000D03*
%TD*%
D23*
%TO.C,R7*%
X173990000Y-129540000D03*
D24*
X158750000Y-129540000D03*
%TD*%
D23*
%TO.C,R4*%
X153670000Y-60960000D03*
D24*
X168910000Y-60960000D03*
%TD*%
D25*
%TO.C,D3*%
X141040001Y-67410001D03*
D16*
X143580001Y-67410001D03*
%TD*%
D23*
%TO.C,R6*%
X168910000Y-93980000D03*
D24*
X168910000Y-109220000D03*
%TD*%
D25*
%TO.C,D2*%
X133985000Y-75565000D03*
D16*
X136525000Y-75565000D03*
%TD*%
D19*
%TO.C,H4*%
X182880000Y-138430000D03*
%TD*%
D23*
%TO.C,R3*%
X153670000Y-54610000D03*
D24*
X168910000Y-54610000D03*
%TD*%
M02*
