%TF.GenerationSoftware,KiCad,Pcbnew,(5.99.0-10388-g9b1890606d)*%
%TF.CreationDate,2021-05-08T21:36:09-04:00*%
%TF.ProjectId,LexaBlaster,4c657861-426c-4617-9374-65722e6b6963,rev?*%
%TF.SameCoordinates,Original*%
%TF.FileFunction,Copper,L1,Top*%
%TF.FilePolarity,Positive*%
%FSLAX46Y46*%
G04 Gerber Fmt 4.6, Leading zero omitted, Abs format (unit mm)*
G04 Created by KiCad (PCBNEW (5.99.0-10388-g9b1890606d)) date 2021-05-08 21:36:09*
%MOMM*%
%LPD*%
G01*
G04 APERTURE LIST*
G04 Aperture macros list*
%AMRoundRect*
0 Rectangle with rounded corners*
0 $1 Rounding radius*
0 $2 $3 $4 $5 $6 $7 $8 $9 X,Y pos of 4 corners*
0 Add a 4 corners polygon primitive as box body*
4,1,4,$2,$3,$4,$5,$6,$7,$8,$9,$2,$3,0*
0 Add four circle primitives for the rounded corners*
1,1,$1+$1,$2,$3*
1,1,$1+$1,$4,$5*
1,1,$1+$1,$6,$7*
1,1,$1+$1,$8,$9*
0 Add four rect primitives between the rounded corners*
20,1,$1+$1,$2,$3,$4,$5,0*
20,1,$1+$1,$4,$5,$6,$7,0*
20,1,$1+$1,$6,$7,$8,$9,0*
20,1,$1+$1,$8,$9,$2,$3,0*%
G04 Aperture macros list end*
%TA.AperFunction,ComponentPad*%
%ADD10R,2.000000X1.905000*%
%TD*%
%TA.AperFunction,ComponentPad*%
%ADD11O,2.000000X1.905000*%
%TD*%
%TA.AperFunction,ComponentPad*%
%ADD12R,1.600000X2.400000*%
%TD*%
%TA.AperFunction,ComponentPad*%
%ADD13O,1.600000X2.400000*%
%TD*%
%TA.AperFunction,ComponentPad*%
%ADD14RoundRect,0.250200X-0.649800X-0.649800X0.649800X-0.649800X0.649800X0.649800X-0.649800X0.649800X0*%
%TD*%
%TA.AperFunction,ComponentPad*%
%ADD15C,1.800000*%
%TD*%
%TA.AperFunction,ComponentPad*%
%ADD16C,1.600000*%
%TD*%
%TA.AperFunction,ComponentPad*%
%ADD17O,1.600000X1.600000*%
%TD*%
%TA.AperFunction,ComponentPad*%
%ADD18R,3.500000X3.500000*%
%TD*%
%TA.AperFunction,ComponentPad*%
%ADD19RoundRect,0.750000X0.750000X1.000000X-0.750000X1.000000X-0.750000X-1.000000X0.750000X-1.000000X0*%
%TD*%
%TA.AperFunction,ComponentPad*%
%ADD20RoundRect,0.875000X0.875000X0.875000X-0.875000X0.875000X-0.875000X-0.875000X0.875000X-0.875000X0*%
%TD*%
%TA.AperFunction,ComponentPad*%
%ADD21C,2.400000*%
%TD*%
%TA.AperFunction,ComponentPad*%
%ADD22O,2.400000X2.400000*%
%TD*%
%TA.AperFunction,ComponentPad*%
%ADD23R,1.800000X1.800000*%
%TD*%
%TA.AperFunction,ComponentPad*%
%ADD24RoundRect,0.249999X-1.550001X0.790001X-1.550001X-0.790001X1.550001X-0.790001X1.550001X0.790001X0*%
%TD*%
%TA.AperFunction,ComponentPad*%
%ADD25O,3.600000X2.080000*%
%TD*%
%TA.AperFunction,ComponentPad*%
%ADD26R,1.600000X1.600000*%
%TD*%
%TA.AperFunction,Conductor*%
%ADD27C,0.400000*%
%TD*%
%TA.AperFunction,Conductor*%
%ADD28C,0.250000*%
%TD*%
G04 APERTURE END LIST*
D10*
%TO.P,U2,1,ADJ*%
%TO.N,Net-(R1-Pad2)*%
X161290000Y-80010000D03*
D11*
%TO.P,U2,2,VO*%
%TO.N,+3V3*%
X161290000Y-82550000D03*
%TO.P,U2,3,VI*%
%TO.N,Net-(J2-Pad1)*%
X161290000Y-85090000D03*
%TD*%
D12*
%TO.P,Q1,1,D*%
%TO.N,Net-(D1-Pad1)*%
X130810000Y-67310000D03*
D13*
X133350000Y-67310000D03*
%TO.P,Q1,2,G*%
%TO.N,Net-(Q1-Pad2)*%
X133350000Y-59690000D03*
%TO.P,Q1,3,S*%
%TO.N,GND*%
X130810000Y-59690000D03*
%TD*%
D14*
%TO.P,U1,1,OUT*%
%TO.N,Net-(A1-Pad5)*%
X138430000Y-57150000D03*
D15*
%TO.P,U1,2,GND*%
%TO.N,GND*%
X140970000Y-57150000D03*
%TO.P,U1,3,Vs*%
%TO.N,+3V3*%
X143510000Y-57150000D03*
%TD*%
D16*
%TO.P,R8,1*%
%TO.N,Net-(A1-Pad6)*%
X128270000Y-83820000D03*
D17*
%TO.P,R8,2*%
%TO.N,Net-(Q1-Pad2)*%
X128270000Y-73660000D03*
%TD*%
D18*
%TO.P,J2,1*%
%TO.N,Net-(J2-Pad1)*%
X174340000Y-121920000D03*
D19*
%TO.P,J2,2*%
%TO.N,GND*%
X180340000Y-121920000D03*
D20*
%TO.P,J2,3*%
%TO.N,N/C*%
X177340000Y-117220000D03*
%TD*%
D21*
%TO.P,R5,1*%
%TO.N,Net-(D2-Pad2)*%
X153670000Y-67310000D03*
D22*
%TO.P,R5,2*%
%TO.N,+3V3*%
X168910000Y-67310000D03*
%TD*%
D23*
%TO.P,D5,1,K*%
%TO.N,GND*%
X161290000Y-137160000D03*
D15*
%TO.P,D5,2,A*%
%TO.N,Net-(D5-Pad2)*%
X163830000Y-137160000D03*
%TD*%
D21*
%TO.P,R1,1*%
%TO.N,+3V3*%
X175260000Y-93980000D03*
D22*
%TO.P,R1,2*%
%TO.N,Net-(R1-Pad2)*%
X175260000Y-109220000D03*
%TD*%
D24*
%TO.P,J1,1,Pin_1*%
%TO.N,Net-(A1-Pad7)*%
X132047500Y-104140000D03*
D25*
%TO.P,J1,2,Pin_2*%
%TO.N,Net-(A1-Pad8)*%
X132047500Y-109220000D03*
%TO.P,J1,3,Pin_3*%
%TO.N,Net-(A1-Pad9)*%
X132047500Y-114300000D03*
%TO.P,J1,4,Pin_4*%
%TO.N,Net-(A1-Pad10)*%
X132047500Y-119380000D03*
%TO.P,J1,5,Pin_5*%
%TO.N,Net-(A1-Pad11)*%
X132047500Y-124460000D03*
%TO.P,J1,6,Pin_6*%
%TO.N,Net-(A1-Pad12)*%
X132047500Y-129540000D03*
%TD*%
D23*
%TO.P,D1,1,K*%
%TO.N,Net-(D1-Pad1)*%
X149225000Y-75565000D03*
D15*
%TO.P,D1,2,A*%
%TO.N,Net-(D1-Pad2)*%
X151765000Y-75565000D03*
%TD*%
D23*
%TO.P,D4,1,K*%
%TO.N,Net-(D1-Pad1)*%
X141605000Y-83185000D03*
D15*
%TO.P,D4,2,A*%
%TO.N,Net-(D4-Pad2)*%
X144145000Y-83185000D03*
%TD*%
D21*
%TO.P,R2,1*%
%TO.N,Net-(D3-Pad2)*%
X153670000Y-48260000D03*
D22*
%TO.P,R2,2*%
%TO.N,+3V3*%
X168910000Y-48260000D03*
%TD*%
D26*
%TO.P,A1,1,D1/TX*%
%TO.N,N/C*%
X138430000Y-101600000D03*
D17*
%TO.P,A1,2,D0/RX*%
X138430000Y-104140000D03*
%TO.P,A1,3,~RESET*%
X138430000Y-106680000D03*
%TO.P,A1,4,GND*%
%TO.N,GND*%
X138430000Y-109220000D03*
%TO.P,A1,5,D2*%
%TO.N,Net-(A1-Pad5)*%
X138430000Y-111760000D03*
%TO.P,A1,6,D3*%
%TO.N,Net-(A1-Pad6)*%
X138430000Y-114300000D03*
%TO.P,A1,7,D4*%
%TO.N,Net-(A1-Pad7)*%
X138430000Y-116840000D03*
%TO.P,A1,8,D5*%
%TO.N,Net-(A1-Pad8)*%
X138430000Y-119380000D03*
%TO.P,A1,9,D6*%
%TO.N,Net-(A1-Pad9)*%
X138430000Y-121920000D03*
%TO.P,A1,10,D7*%
%TO.N,Net-(A1-Pad10)*%
X138430000Y-124460000D03*
%TO.P,A1,11,D8*%
%TO.N,Net-(A1-Pad11)*%
X138430000Y-127000000D03*
%TO.P,A1,12,D9*%
%TO.N,Net-(A1-Pad12)*%
X138430000Y-129540000D03*
%TO.P,A1,13,D10*%
%TO.N,N/C*%
X138430000Y-132080000D03*
%TO.P,A1,14,D11*%
X138430000Y-134620000D03*
%TO.P,A1,15,D12*%
X138430000Y-137160000D03*
%TO.P,A1,16,D13*%
X153670000Y-137160000D03*
%TO.P,A1,17,3V3*%
%TO.N,+3V3*%
X153670000Y-134620000D03*
%TO.P,A1,18,AREF*%
%TO.N,N/C*%
X153670000Y-132080000D03*
%TO.P,A1,19,A0*%
X153670000Y-129540000D03*
%TO.P,A1,20,A1*%
X153670000Y-127000000D03*
%TO.P,A1,21,A2*%
X153670000Y-124460000D03*
%TO.P,A1,22,A3*%
X153670000Y-121920000D03*
%TO.P,A1,23,A4*%
X153670000Y-119380000D03*
%TO.P,A1,24,A5*%
X153670000Y-116840000D03*
%TO.P,A1,25,A6*%
X153670000Y-114300000D03*
%TO.P,A1,26,A7*%
X153670000Y-111760000D03*
%TO.P,A1,27,+5V*%
X153670000Y-109220000D03*
%TO.P,A1,28,~RESET*%
X153670000Y-106680000D03*
%TO.P,A1,29,GND*%
%TO.N,GND*%
X153670000Y-104140000D03*
%TO.P,A1,30,VIN*%
%TO.N,N/C*%
X153670000Y-101600000D03*
%TD*%
D21*
%TO.P,R7,1*%
%TO.N,Net-(D5-Pad2)*%
X173990000Y-129540000D03*
D22*
%TO.P,R7,2*%
%TO.N,+3V3*%
X158750000Y-129540000D03*
%TD*%
D21*
%TO.P,R4,1*%
%TO.N,Net-(D1-Pad2)*%
X153670000Y-60960000D03*
D22*
%TO.P,R4,2*%
%TO.N,+3V3*%
X168910000Y-60960000D03*
%TD*%
D23*
%TO.P,D3,1,K*%
%TO.N,Net-(D1-Pad1)*%
X141040001Y-67410001D03*
D15*
%TO.P,D3,2,A*%
%TO.N,Net-(D3-Pad2)*%
X143580001Y-67410001D03*
%TD*%
D21*
%TO.P,R6,1*%
%TO.N,Net-(R1-Pad2)*%
X168910000Y-93980000D03*
D22*
%TO.P,R6,2*%
%TO.N,GND*%
X168910000Y-109220000D03*
%TD*%
D23*
%TO.P,D2,1,K*%
%TO.N,Net-(D1-Pad1)*%
X133985000Y-75565000D03*
D15*
%TO.P,D2,2,A*%
%TO.N,Net-(D2-Pad2)*%
X136525000Y-75565000D03*
%TD*%
D21*
%TO.P,R3,1*%
%TO.N,Net-(D4-Pad2)*%
X153670000Y-54610000D03*
D22*
%TO.P,R3,2*%
%TO.N,+3V3*%
X168910000Y-54610000D03*
%TD*%
D27*
%TO.N,+3V3*%
X158750000Y-132080000D02*
X156210000Y-134620000D01*
X158750000Y-129540000D02*
X158750000Y-132080000D01*
X156210000Y-134620000D02*
X153670000Y-134620000D01*
X170180000Y-112395000D02*
X158750000Y-123825000D01*
X179070000Y-112395000D02*
X170180000Y-112395000D01*
X180975000Y-110490000D02*
X179070000Y-112395000D01*
X180975000Y-99695000D02*
X180975000Y-110490000D01*
X158750000Y-123825000D02*
X158750000Y-129540000D01*
X175260000Y-93980000D02*
X180975000Y-99695000D01*
X151130000Y-45720000D02*
X151765000Y-45085000D01*
X151130000Y-48257208D02*
X151130000Y-45720000D01*
X143510000Y-55877208D02*
X151130000Y-48257208D01*
X151765000Y-45085000D02*
X165735000Y-45085000D01*
X143510000Y-57150000D02*
X143510000Y-55877208D01*
X165735000Y-45085000D02*
X168910000Y-48260000D01*
X168910000Y-48260000D02*
X168910000Y-67310000D01*
X162560000Y-71120000D02*
X167005000Y-71120000D01*
X158750000Y-82550000D02*
X158115000Y-81915000D01*
X167005000Y-71120000D02*
X168910000Y-69215000D01*
X168910000Y-69215000D02*
X168910000Y-67310000D01*
X161290000Y-82550000D02*
X158750000Y-82550000D01*
X158115000Y-81915000D02*
X158115000Y-75565000D01*
X158115000Y-75565000D02*
X162560000Y-71120000D01*
X163830000Y-88900000D02*
X165735000Y-90805000D01*
X161290000Y-82550000D02*
X163830000Y-85090000D01*
X163830000Y-85090000D02*
X163830000Y-88900000D01*
X172085000Y-90805000D02*
X175260000Y-93980000D01*
X165735000Y-90805000D02*
X172085000Y-90805000D01*
D28*
%TO.N,Net-(D1-Pad1)*%
X149225000Y-75565000D02*
X141605000Y-83185000D01*
X141605000Y-83185000D02*
X133985000Y-75565000D01*
%TO.N,Net-(D2-Pad2)*%
X145415000Y-75565000D02*
X136525000Y-75565000D01*
X153670000Y-67310000D02*
X145415000Y-75565000D01*
%TO.N,Net-(A1-Pad6)*%
X135890000Y-113030000D02*
X137160000Y-114300000D01*
X128270000Y-83820000D02*
X135890000Y-91440000D01*
X135890000Y-91440000D02*
X135890000Y-113030000D01*
X137160000Y-114300000D02*
X138430000Y-114300000D01*
%TO.N,Net-(D5-Pad2)*%
X173990000Y-129540000D02*
X166370000Y-137160000D01*
X166370000Y-137160000D02*
X163830000Y-137160000D01*
%TO.N,Net-(R1-Pad2)*%
X175260000Y-109220000D02*
X175260000Y-100330000D01*
X175260000Y-100330000D02*
X168910000Y-93980000D01*
%TD*%
M02*
