M48
; DRILL file {KiCad (5.99.0-9218-g05b559c9dc)} date 02/22/21 21:08:44
; FORMAT={-:-/ absolute / inch / decimal}
; #@! TF.CreationDate,2021-02-22T21:08:44-05:00
; #@! TF.GenerationSoftware,Kicad,Pcbnew,(5.99.0-9218-g05b559c9dc)
; #@! TF.FileFunction,Plated,1,2,PTH
FMAT,2
INCH
T1C0.0315
T2C0.0354
T3C0.0394
T4C0.0433
T5C0.0472
T6C0.0551
%
G90
G05
T1
X5.05Y-2.9
X5.05Y-3.3
X5.15Y-2.35
X5.15Y-2.65
X5.25Y-2.35
X5.25Y-2.65
T2
X5.275Y-2.975
X5.375Y-2.975
X5.45Y-2.25
X5.55Y-2.25
X5.5528Y-2.6539
X5.575Y-3.275
X5.65Y-2.25
X5.6528Y-2.6539
X5.675Y-3.275
X5.875Y-2.975
X5.975Y-2.975
X6.35Y-5.4
X6.45Y-5.4
T3
X5.45Y-4.0
X5.45Y-4.1
X5.45Y-4.2
X5.45Y-4.3
X5.45Y-4.4
X5.45Y-4.5
X5.45Y-4.6
X5.45Y-4.7
X5.45Y-4.8
X5.45Y-4.9
X5.45Y-5.0
X5.45Y-5.1
X5.45Y-5.2
X5.45Y-5.3
X5.45Y-5.4
X6.05Y-4.0
X6.05Y-4.1
X6.05Y-4.2
X6.05Y-4.3
X6.05Y-4.4
X6.05Y-4.5
X6.05Y-4.6
X6.05Y-4.7
X6.05Y-4.8
X6.05Y-4.9
X6.05Y-5.0
X6.05Y-5.1
X6.05Y-5.2
X6.05Y-5.3
X6.05Y-5.4
T4
X6.35Y-3.15
X6.35Y-3.25
X6.35Y-3.35
T5
X6.05Y-1.9
X6.05Y-2.15
X6.05Y-2.4
X6.05Y-2.65
X6.25Y-5.1
X6.65Y-1.9
X6.65Y-2.15
X6.65Y-2.4
X6.65Y-2.65
X6.65Y-3.7
X6.65Y-4.3
X6.85Y-5.1
X6.9Y-3.7
X6.9Y-4.3
T6
X5.1987Y-4.1
X5.1987Y-4.3
X5.1987Y-4.5
X5.1987Y-4.7
X5.1987Y-4.9
X5.1987Y-5.1
T3
G00X6.8638Y-4.8394
M15
G01X6.8638Y-4.7606
M16
G05
G00X7.0213Y-4.615
M15
G01X6.9425Y-4.615
M16
G05
G00X7.1Y-4.8394
M15
G01X7.1Y-4.7606
M16
G05
T0
M30
